<svg width="50" height="50" viewBox="0 0 50 50" fill="none" xmlns="http://www.w3.org/2000/svg">
<path d="M49.1174 31.4101C48.0948 34.891 46.1985 38.0117 43.4239 40.7681L43.3018 40.8901C39.8371 44.3325 35.8023 46.3965 31.2015 47.0909C30.0389 47.2663 28.842 47.3583 27.6066 47.3583C21.4265 47.3583 16.1418 45.1635 11.7468 40.7681C8.98996 38.0108 7.10692 34.891 6.09216 31.4101H49.1174ZM49.9811 26.2054C49.9399 27.0347 49.8542 27.845 49.73 28.6398L49.6872 28.9041H5.52643C5.39419 28.1128 5.30052 27.3062 5.25007 26.4811L5.23486 26.2054H49.9811ZM49.6863 21.0007C49.8194 21.7925 49.9135 22.5991 49.9644 23.4238L49.9797 23.6994H5.23486C5.27565 22.8706 5.36055 22.0603 5.4839 21.2652L5.52643 21.0007H49.6863Z" fill="#2C2255"/>
<path d="M49.1183 18.4943C48.0967 15.0038 46.1999 11.8693 43.4239 9.09284C39.9411 5.61009 35.8771 3.52062 31.2372 2.81757C30.0636 2.63952 28.8548 2.54614 27.6066 2.54614C21.4266 2.54614 16.1413 4.72899 11.7468 9.09284C8.98907 11.8693 7.10512 15.0038 6.09082 18.4943" fill="#2C2255"/>
<path d="M3.90431 24.9531C3.90431 13.1331 12.7817 3.31189 24.3303 1.58447C24.0438 1.57394 23.7559 1.5625 23.4666 1.5625C10.5068 1.5625 0 12.035 0 24.9531C0 37.8717 10.5064 48.3437 23.4666 48.3437C23.7568 48.3437 24.0447 48.3327 24.3321 48.3222C12.7817 46.5948 3.90431 36.7736 3.90431 24.9531Z" fill="#F7941E"/>
<path d="M42.8343 23.6989C42.7593 22.7739 42.6036 21.8717 42.3711 21.0002H12.8439C12.6114 21.8713 12.4553 22.7734 12.3802 23.6989H42.8343Z" fill="url(#paint0_linear_43_43)"/>
<path d="M42.8343 26.2053H12.3807C12.4558 27.1304 12.611 28.0325 12.8439 28.904H42.3716C42.6041 28.0325 42.7593 27.1304 42.8343 26.2053Z" fill="url(#paint1_linear_43_43)"/>
<path d="M27.6076 40.2354C33.7396 40.2354 39.0253 36.6226 41.4594 31.4102H13.7557C16.1899 36.6226 21.4756 40.2354 27.6076 40.2354Z" fill="url(#paint2_linear_43_43)"/>
<path d="M49.6812 28.9037C49.5307 29.7569 49.3334 30.5936 49.089 31.4102H6.09167C5.84679 30.5932 5.67607 29.7565 5.52594 28.9037H49.6812ZM49.9417 23.6991C49.9664 24.1307 49.9824 24.5641 49.9824 25.0013C49.9824 25.4054 49.9705 25.8068 49.9495 26.2055H5.22705C5.20599 25.8068 5.19409 25.4054 5.19409 25.0013C5.19409 24.5641 5.21011 24.1302 5.23483 23.6991H49.9417ZM48.9425 18.4944C49.191 19.3109 49.3901 20.1481 49.5448 21.0008H5.52639C5.68064 20.1477 5.8413 19.3105 6.0903 18.4944H48.9425Z" fill="white"/>
<defs>
<linearGradient id="paint0_linear_43_43" x1="1535.07" y1="2960.94" x2="1535.07" y2="-409.44" gradientUnits="userSpaceOnUse">
<stop offset="0.3033" stop-color="#473788"/>
<stop offset="0.872" stop-color="#2C2255"/>
</linearGradient>
<linearGradient id="paint1_linear_43_43" x1="1535.03" y1="2445.68" x2="1535.03" y2="-924.702" gradientUnits="userSpaceOnUse">
<stop offset="0.3033" stop-color="#473788"/>
<stop offset="0.872" stop-color="#2C2255"/>
</linearGradient>
<linearGradient id="paint2_linear_43_43" x1="1398.91" y1="1930.33" x2="1398.91" y2="-1439.89" gradientUnits="userSpaceOnUse">
<stop offset="0.3033" stop-color="#473788"/>
<stop offset="0.8631" stop-color="#2C2255"/>
</linearGradient>
</defs>
</svg>
