<svg width="50" height="50" viewBox="0 0 50 50" fill="none" xmlns="http://www.w3.org/2000/svg">
<g clip-path="url(#clip0_43_4)">
<path d="M24.786 0.0141602C12.1246 0.0141602 12.9152 5.52691 12.9152 5.52691L12.9293 11.2383H25.0117V12.953H8.13029C8.13029 12.953 0.0283203 12.0304 0.0283203 24.8569C0.0283203 37.6838 7.09992 37.2289 7.09992 37.2289H11.3202V31.2767C11.3202 31.2767 11.0927 24.1767 18.2789 24.1767H30.2626C30.2626 24.1767 36.9953 24.2859 36.9953 17.6436V6.66083C36.9953 6.66083 38.0179 0.0141602 24.786 0.0141602ZM18.1237 3.85494C18.4092 3.85469 18.692 3.91096 18.9558 4.02054C19.2196 4.13012 19.4594 4.29086 19.6612 4.49357C19.8631 4.69627 20.0232 4.93695 20.1324 5.20184C20.2415 5.46673 20.2976 5.75063 20.2973 6.0373C20.2976 6.32396 20.2415 6.60786 20.1324 6.87275C20.0232 7.13764 19.8631 7.37833 19.6612 7.58103C19.4594 7.78373 19.2196 7.94447 18.9558 8.05405C18.692 8.16364 18.4092 8.21991 18.1237 8.21965C17.8382 8.21991 17.5554 8.16364 17.2916 8.05405C17.0277 7.94447 16.788 7.78373 16.5861 7.58103C16.3842 7.37833 16.2241 7.13764 16.115 6.87275C16.0059 6.60786 15.9498 6.32396 15.9501 6.0373C15.9498 5.75063 16.0059 5.46673 16.115 5.20184C16.2241 4.93695 16.3842 4.69627 16.5861 4.49357C16.788 4.29086 17.0277 4.13012 17.2916 4.02054C17.5554 3.91096 17.8382 3.85469 18.1237 3.85494Z" fill="url(#paint0_linear_43_4)"/>
<path d="M25.1455 49.8285C37.8068 49.8285 37.0163 44.3158 37.0163 44.3158L37.0022 38.6046H24.9196V36.8899H41.801C41.801 36.8899 49.9029 37.8124 49.9029 24.9856C49.9029 12.1589 42.8313 12.6138 42.8313 12.6138H38.611V18.5658C38.611 18.5658 38.8386 25.6658 31.6523 25.6658H19.6687C19.6687 25.6658 12.9359 25.5566 12.9359 32.1991V43.182C12.9359 43.182 11.9136 49.8285 25.1453 49.8285H25.1455ZM31.8078 45.9881C31.5223 45.9884 31.2395 45.9321 30.9757 45.8225C30.7118 45.7129 30.4721 45.5522 30.2702 45.3495C30.0683 45.1468 29.9082 44.9061 29.7991 44.6412C29.6899 44.3763 29.6339 44.0924 29.6341 43.8058C29.6339 43.5191 29.6899 43.2352 29.799 42.9703C29.9082 42.7053 30.0683 42.4646 30.2701 42.2619C30.472 42.0592 30.7118 41.8984 30.9756 41.7888C31.2395 41.6792 31.5222 41.623 31.8078 41.6232C32.0933 41.623 32.3761 41.6792 32.6399 41.7888C32.9037 41.8984 33.1434 42.0591 33.3453 42.2618C33.5472 42.4645 33.7073 42.7052 33.8165 42.9701C33.9256 43.235 33.9817 43.5189 33.9814 43.8056C33.9817 44.0922 33.9256 44.3761 33.8165 44.641C33.7073 44.9059 33.5472 45.1466 33.3453 45.3493C33.1434 45.552 32.9037 45.7127 32.6399 45.8223C32.3761 45.9319 32.0933 45.9884 31.8078 45.9881Z" fill="url(#paint1_linear_43_4)"/>
</g>
<defs>
<linearGradient id="paint0_linear_43_4" x1="479.322" y1="448.066" x2="2960.76" y2="2894.92" gradientUnits="userSpaceOnUse">
<stop stop-color="#387EB8"/>
<stop offset="1" stop-color="#366994"/>
</linearGradient>
<linearGradient id="paint1_linear_43_4" x1="720.373" y1="778.494" x2="3384.66" y2="3287.06" gradientUnits="userSpaceOnUse">
<stop stop-color="#FFE052"/>
<stop offset="1" stop-color="#FFC331"/>
</linearGradient>
<clipPath id="clip0_43_4">
<rect width="50" height="50" fill="white"/>
</clipPath>
</defs>
</svg>
