<svg width="50" height="50" viewBox="0 0 50 50" fill="none" xmlns="http://www.w3.org/2000/svg">
<g clip-path="url(#clip0_43_11)">
<path d="M22.4187 0H32.8246V37.449C27.4945 38.2406 23.5707 38.5521 19.3252 38.5521C6.61582 38.5417 0 34.0834 0 25.5208C0 17.2709 7.01758 11.9166 17.8922 11.9166C19.5797 11.9166 20.8652 12.0209 22.4187 12.3333V0ZM22.7834 19.082C21.5646 18.7695 20.5604 18.6654 19.2746 18.6654C14.0115 18.6654 10.9715 21.1861 10.9715 25.6038C10.9715 29.9049 13.8777 32.2798 19.2078 32.2798C20.3594 32.2798 21.2969 32.2289 22.7834 32.0727V19.082Z" fill="#2BA977"/>
<path d="M49.8412 12.9221V31.6722C49.8412 38.1294 49.2252 41.2347 47.4172 43.9118C45.7297 46.4857 43.5066 48.1087 38.9131 49.9013L29.2572 46.3285C33.8508 44.6523 36.0738 43.1711 37.4935 40.9108C38.9799 38.5993 39.4486 35.9221 39.4486 28.8805V12.9222L49.8412 12.9221ZM38.4 0H48.8058V8.30211H38.4V0Z" fill="#2BA977"/>
</g>
<defs>
<clipPath id="clip0_43_11">
<rect width="50" height="50" fill="white"/>
</clipPath>
</defs>
</svg>
