<svg width="100" height="100" viewBox="0 0 100 100" fill="none" xmlns="http://www.w3.org/2000/svg">
<path d="M50 43.4211C62.3474 43.4211 72.358 40.773 72.3684 37.5052V69.079C72.3684 72.3492 62.3537 75.0001 50 75.0001V64.6815L50.0888 64.6843L51.6184 66.3339C52.1096 66.846 52.6146 67.2918 53.1333 67.6711C53.6518 68.0505 54.1941 68.3493 54.7599 68.5676C55.3257 68.7857 55.9451 68.8948 56.6184 68.8948L58.0362 68.8044L58.9474 68.6251V65.9014L58.6086 66.0084L58.2237 66.0906L57.8272 66.1415L57.4671 66.158L56.347 66.0725L55.3438 65.765L54.3733 65.1597L53.3553 64.181C54.7829 63.6701 55.8958 62.7896 56.6941 61.5396C57.4945 60.2764 57.8947 58.7676 57.8947 57.0133C57.8947 54.7676 57.2401 52.9617 55.9309 51.5955C54.6283 50.2161 52.9254 49.5264 50.8224 49.5264L50 49.5597V43.4211ZM68.4211 30.9211H72.3684V33.5527C72.3684 36.8229 62.3537 39.4738 50 39.4738V32.8948C60.1737 32.8948 68.4211 32.0113 68.4211 30.9211ZM50.7072 52.4738C51.8388 52.4738 52.7237 52.8938 53.3618 53.7336C53.9978 54.5604 54.3158 55.7106 54.3158 57.1843C54.3158 58.6054 53.9836 59.7227 53.3191 60.5363C52.6634 61.3367 51.7654 61.7369 50.625 61.7369L50 61.6892V52.5331L50.7072 52.4738ZM69.0526 64.4738V61.7369H63.5789V49.7369H60.2105V64.4738H69.0526Z" fill="black" fill-opacity="0.701961"/>
<path d="M50 75C37.6462 75 27.6316 72.3491 27.6316 69.0789V37.5C27.6316 40.7701 37.6463 43.4211 50 43.4211V49.5311C48.1065 49.6828 46.5626 50.3895 45.3684 51.6512C44.0175 53.0788 43.3421 54.9561 43.3421 57.2828C43.3421 58.3004 43.5021 59.2532 43.8224 60.1413C44.1425 61.0295 44.5959 61.8032 45.1825 62.4621C45.7692 63.1211 46.4758 63.6451 47.3026 64.0345C48.1124 64.4157 49.0115 64.6229 50 64.6559V75ZM72.3684 30.9211H68.4211C68.4211 29.8311 60.1737 28.9474 50 28.9474C39.8263 28.9474 31.579 29.8311 31.579 30.9211C31.579 32.0112 39.8263 32.8947 50 32.8947V39.4737C37.6462 39.4737 27.6316 36.8228 27.6316 33.5526V30.9211C27.6316 27.6511 37.6463 25 50 25C62.3474 25 72.358 27.6483 72.3684 30.9211ZM31.7632 63.8584C32.3004 64.1238 32.9358 64.3234 33.6694 64.4571C34.4029 64.5909 35.1765 64.6578 35.9901 64.6578C36.7817 64.6578 37.534 64.5828 38.2467 64.4325C38.9594 64.2822 39.5844 64.035 40.1217 63.6907C40.659 63.3464 41.0844 62.8968 41.398 62.342C41.7116 61.7872 41.8684 61.1008 41.8684 60.2828C41.8684 59.6907 41.7807 59.1716 41.6053 58.7253C41.4298 58.2789 41.1765 57.8821 40.8454 57.5345C40.5142 57.1868 40.1173 56.8749 39.6546 56.5986L38.0888 55.8157L36.9441 55.3009L36.0823 54.7893L35.5345 54.2384C35.4062 54.0443 35.3421 53.8245 35.3421 53.5788C35.3421 53.3442 35.3996 53.1321 35.5147 52.9424L36.0016 52.4538L36.773 52.138L37.7862 52.0262L38.6448 52.0887L39.5526 52.2828L40.4408 52.615L41.2369 53.0788V50.0558C40.7369 49.8672 40.1901 49.7275 39.597 49.6364L37.5559 49.4999C36.773 49.4999 36.0317 49.5833 35.3323 49.7499C34.6326 49.9166 34.017 50.1775 33.4851 50.5328C32.9533 50.888 32.5334 51.3399 32.2253 51.888C31.9171 52.4363 31.7632 53.092 31.7632 53.8551C31.7632 54.8288 32.0416 55.66 32.5987 56.3486C33.1557 57.0372 34.0021 57.6195 35.1382 58.0953L36.3832 58.638L37.3816 59.1907L38.0461 59.8141C38.2083 60.0388 38.2895 60.2938 38.2895 60.5788L38.1365 61.1939C38.0345 61.3826 37.8794 61.5466 37.6711 61.6858L36.893 62.013L35.8026 62.1314C35.0942 62.1314 34.3925 62.0087 33.6974 61.763C33.0021 61.5175 32.3574 61.1491 31.7632 60.6578V63.8584ZM47.9375 53.7268C48.4801 53.0503 49.1676 52.642 50 52.5021V61.6667C49.1688 61.5407 48.478 61.1418 47.9276 60.4703C47.2566 59.637 46.9211 58.513 46.9211 57.0986C46.9211 55.6972 47.2599 54.5734 47.9375 53.7268Z" fill="black"/>
</svg>
