<svg width="60" height="42" viewBox="0 0 60 42" fill="none" xmlns="http://www.w3.org/2000/svg">
<path d="M30 0C22.0017 0 16.9987 4.66714 14.9982 14.0014C18.0007 9.33428 21.5007 7.58144 25.5016 8.74716C27.7817 9.41511 29.4118 11.3466 31.2199 13.4866C34.1607 16.9668 37.5663 21 45.0018 21C53.0001 21 57.9995 16.3329 60 6.99858C57.0011 11.6657 53.5012 13.4143 49.5002 12.2486C47.2201 11.5849 45.5863 9.64911 43.7819 7.51337C40.8411 4.02897 37.4356 0 30 0ZM14.9982 21C6.99988 21 2.00048 25.6671 0 35.0014C2.99891 30.3343 6.49885 28.5857 10.4998 29.7514C12.7835 30.4151 14.4137 32.3509 16.2181 34.4866C19.1589 37.971 22.5644 42 30 42C38.0019 42 43.0013 37.3329 45.0018 27.9986C41.9993 32.6657 38.4993 34.4186 34.502 33.2528C32.2183 32.5849 30.5882 30.6534 28.7801 28.5134C25.8393 25.0332 22.4337 21 14.9982 21Z" fill="#06B6D4"/>
</svg>
